<?xml version="1.0" standalone="no"?>
<!DOCTYPE svg PUBLIC "-//W3C//DTD SVG 20010904//EN"
 "http://www.w3.org/TR/2001/REC-SVG-20010904/DTD/svg10.dtd">
<svg version="1.0" xmlns="http://www.w3.org/2000/svg"
 width="1080.000000pt" height="1080.000000pt" viewBox="0 0 1080.000000 1080.000000"
 preserveAspectRatio="xMidYMid meet">
<metadata>
Created by potrace 1.14, written by Peter Selinger 2001-2017
</metadata>
<g transform="translate(0.000000,1080.000000) scale(0.100000,-0.100000)"
fill="#000000" stroke="none">
<path d="M4468 9632 c-92 -65 -260 -180 -373 -257 -113 -77 -215 -148 -227
-158 -13 -10 -39 -28 -60 -39 -21 -12 -38 -25 -38 -30 0 -4 -4 -8 -9 -8 -8 0
-364 -242 -398 -270 -7 -5 -15 -10 -18 -10 -3 0 -11 -5 -18 -10 -11 -10 -441
-307 -477 -330 -12 -8 -341 -234 -436 -300 -12 -8 -62 -42 -110 -75 -259 -176
-935 -641 -950 -654 -6 -5 -29 -20 -52 -35 -22 -14 -132 -89 -244 -166 -112
-77 -223 -153 -248 -170 -25 -18 -110 -77 -190 -132 -80 -55 -238 -163 -351
-240 -218 -146 -234 -162 -227 -229 3 -31 15 -40 203 -161 110 -71 242 -157
294 -191 52 -34 109 -71 127 -82 63 -39 312 -200 452 -293 l144 -95 -6 -56
c-4 -31 -11 -87 -16 -126 -5 -38 -15 -124 -21 -190 -6 -66 -17 -174 -25 -240
-7 -66 -18 -190 -24 -275 -6 -85 -15 -213 -20 -284 -13 -175 -13 -478 1 -571
13 -83 33 -109 63 -79 9 8 16 20 16 25 0 16 34 10 82 -16 69 -37 116 -34 158
10 l33 34 -6 78 c-4 43 -16 164 -28 268 -32 293 -36 335 -53 565 -20 277 -36
752 -26 763 7 8 96 -47 296 -181 l52 -34 7 -98 c7 -103 1 -184 -17 -235 -11
-30 -112 -164 -175 -232 -65 -71 -33 -89 69 -40 85 41 148 55 148 34 0 -8 -7
-36 -15 -63 -25 -84 -16 -204 27 -334 7 -19 37 -62 68 -95 137 -147 163 -188
235 -380 47 -126 62 -155 80 -155 12 0 15 14 15 58 0 71 18 184 31 197 6 6 18
-1 34 -20 28 -35 127 -231 145 -290 33 -105 36 -110 66 -110 l29 0 3 135 c1
74 5 142 8 150 8 21 52 -67 76 -152 10 -36 29 -115 42 -175 31 -147 75 -260
129 -335 79 -110 134 -150 395 -283 152 -77 378 -133 543 -133 48 -1 105 -5
127 -11 36 -10 40 -15 48 -54 5 -23 8 -100 7 -172 -1 -124 -2 -130 -24 -145
-80 -52 -207 -170 -231 -215 -18 -33 -36 -53 -55 -59 -15 -5 -39 -17 -53 -26
-14 -10 -36 -21 -50 -25 -14 -4 -52 -20 -85 -34 -33 -15 -103 -35 -155 -45
-52 -9 -111 -21 -130 -26 -19 -5 -71 -16 -115 -25 -180 -38 -231 -56 -455
-158 -30 -14 -111 -66 -180 -116 -69 -50 -150 -108 -180 -130 -138 -97 -332
-276 -398 -366 -20 -27 -53 -69 -73 -92 -20 -24 -69 -89 -108 -145 -40 -57
-97 -134 -127 -172 -30 -37 -54 -77 -54 -87 0 -30 47 -24 78 9 37 38 94 113
185 243 51 72 111 148 213 266 64 74 210 198 414 349 205 151 220 160 387 233
111 49 261 89 513 136 98 18 184 42 218 59 62 31 164 67 177 62 11 -4 15 -21
15 -56 0 -27 7 -92 16 -142 26 -161 37 -178 107 -178 27 0 46 10 83 43 27 24
68 57 92 74 41 30 101 98 102 117 0 12 41 46 55 46 7 0 32 26 57 58 25 31 72
77 103 102 32 25 70 57 84 71 32 32 86 69 99 69 6 0 16 -16 22 -35 6 -19 17
-41 24 -48 25 -27 78 -117 102 -178 14 -35 34 -73 45 -85 10 -11 19 -26 19
-33 0 -8 15 -28 33 -45 35 -34 49 -59 69 -126 11 -37 18 -46 46 -54 32 -9 102
-69 102 -87 0 -5 11 -9 24 -9 26 0 32 16 55 160 14 89 33 353 26 371 -3 8 0
22 7 32 11 14 38 17 188 21 166 4 239 12 355 41 209 52 399 115 468 153 82 47
146 82 237 132 47 26 137 78 200 116 63 38 149 87 190 109 41 21 87 46 101 54
145 87 235 142 294 182 73 48 186 119 243 151 18 10 39 23 45 28 148 119 227
199 422 425 241 281 473 487 613 545 72 31 85 33 197 33 106 0 147 -4 257 -29
45 -10 63 54 20 71 -48 18 -179 35 -273 35 -210 0 -314 -54 -583 -304 -60 -56
-132 -129 -160 -163 -99 -121 -232 -269 -339 -380 -85 -87 -137 -130 -240
-199 -336 -222 -480 -312 -632 -392 -90 -48 -210 -117 -335 -192 -71 -43 -294
-166 -325 -179 -55 -25 -129 -51 -141 -51 -8 0 -22 -4 -32 -10 -16 -9 -99 -32
-237 -66 -127 -31 -213 -44 -302 -44 -51 0 -124 -5 -163 -12 -77 -13 -89 -8
-90 37 -1 78 -47 144 -129 184 l-56 27 2 98 c2 98 17 190 35 213 5 7 31 15 56
19 26 3 76 13 112 21 36 9 92 19 125 23 116 16 464 149 529 203 124 101 178
152 204 190 37 54 112 195 112 211 0 7 9 32 21 56 12 24 32 80 46 124 14 45
36 104 49 133 13 28 24 63 24 77 0 35 87 127 136 145 34 12 105 60 183 126 13
11 40 38 60 60 82 91 111 116 127 113 16 -3 43 -42 79 -113 24 -49 64 -86 88
-83 28 4 34 39 12 72 -15 23 -15 26 1 50 16 25 16 29 -9 84 -44 99 -68 206
-72 329 -3 99 -1 113 13 113 9 0 54 -20 101 -44 95 -49 173 -64 179 -35 2 9
-20 52 -48 95 -28 42 -53 89 -56 103 -3 14 -10 37 -16 51 -17 41 -26 62 -47
123 -20 56 -21 58 -2 65 21 8 55 38 261 232 145 136 244 228 300 280 19 17 69
64 110 104 100 95 321 301 390 362 30 27 108 101 172 163 108 105 118 118 118
151 0 39 11 28 -599 615 -69 66 -186 179 -260 250 -346 333 -622 599 -691 665
-26 25 -98 95 -161 155 -63 61 -170 164 -239 230 -69 66 -241 232 -382 368
-141 137 -266 256 -277 266 -19 16 -318 304 -681 656 -79 77 -146 143 -148
148 -2 4 -20 7 -40 6 -30 -1 -68 -22 -204 -117z m-203 -1962 c77 -5 194 -14
260 -20 66 -5 212 -14 325 -21 247 -14 247 -13 690 -159 135 -44 277 -92 315
-107 63 -23 237 -127 275 -164 8 -8 37 -32 63 -53 26 -21 76 -73 111 -115 35
-42 101 -114 146 -161 46 -47 116 -131 156 -187 78 -112 75 -100 104 -328 6
-49 18 -134 26 -188 20 -139 18 -218 -11 -347 -14 -62 -25 -127 -25 -144 0
-17 -4 -37 -9 -45 -5 -8 -11 88 -14 235 -3 137 -10 272 -16 299 -44 194 -61
243 -148 423 -46 96 -199 279 -299 357 -42 33 -90 72 -108 86 -99 81 -293 195
-461 271 -207 94 -230 102 -420 143 -226 49 -368 72 -690 111 -217 26 -694 20
-850 -11 -38 -7 -117 -21 -175 -30 -106 -16 -367 -78 -398 -94 -9 -5 -60 -26
-112 -47 -136 -53 -283 -129 -372 -191 -43 -29 -80 -53 -83 -53 -20 0 -219
-177 -294 -262 -50 -57 -145 -157 -212 -223 -86 -86 -141 -152 -195 -232 -73
-111 -83 -136 -65 -171 20 -38 72 -175 121 -322 29 -85 56 -159 60 -165 4 -5
15 -37 24 -70 9 -33 21 -69 26 -80 4 -11 21 -56 35 -100 15 -44 31 -84 35 -90
17 -23 21 -55 8 -55 -27 0 -77 69 -91 125 -6 22 -56 145 -86 210 -36 79 -241
582 -241 592 0 10 63 92 121 158 15 17 80 93 145 170 65 77 121 142 124 145 3
3 23 28 45 55 22 28 52 64 67 80 34 38 54 61 100 117 21 26 101 88 183 144
164 112 169 114 291 179 126 67 197 106 209 115 27 22 236 118 275 128 42 10
181 33 277 46 22 3 117 10 210 16 175 10 307 27 333 41 8 5 29 7 45 4 17 -2
93 -9 170 -15z m205 -1250 c30 -5 87 -12 125 -15 87 -7 183 -28 300 -66 50
-16 140 -45 200 -64 61 -20 162 -56 225 -81 63 -26 144 -58 180 -72 84 -34
140 -65 218 -119 34 -25 62 -45 62 -46 15 -67 30 -175 31 -217 1 -97 23 -215
39 -215 8 0 28 33 48 80 62 145 72 165 82 165 20 0 127 -111 147 -152 59 -122
102 -217 112 -248 43 -142 54 -182 67 -230 7 -30 13 -69 14 -86 0 -17 11 -62
24 -100 13 -38 29 -87 35 -109 l12 -40 -49 -51 c-63 -65 -140 -181 -174 -261
-15 -34 -39 -113 -53 -175 -14 -62 -37 -149 -50 -193 -13 -44 -29 -100 -35
-125 -7 -25 -16 -54 -20 -65 -13 -30 -76 -233 -90 -290 -26 -101 -172 -336
-262 -421 -58 -55 -160 -125 -228 -156 -232 -107 -313 -136 -499 -178 -114
-26 -656 -46 -791 -30 -52 7 -147 16 -210 21 -214 17 -295 27 -335 41 -22 8
-69 18 -104 22 -35 4 -92 20 -130 37 -254 116 -323 151 -409 207 -135 88 -193
186 -261 442 -7 25 -16 59 -21 75 -5 17 -16 59 -26 95 -10 36 -29 82 -42 103
-28 42 -126 107 -247 162 -156 72 -171 79 -225 114 -30 19 -57 37 -60 41 -3 3
-36 27 -75 52 -182 118 -230 222 -190 411 19 89 44 131 116 192 98 84 137 99
256 103 168 6 207 -14 296 -154 39 -60 46 -80 49 -130 2 -45 7 -60 19 -62 13
-2 24 20 49 98 17 56 34 118 37 138 7 47 20 72 37 72 15 0 21 -12 72 -135 46
-111 74 -147 86 -112 3 6 -1 53 -8 102 -7 50 -16 191 -20 315 -10 337 20 519
121 737 73 158 101 207 128 227 37 27 46 15 81 -99 34 -111 80 -229 106 -273
31 -50 47 -42 55 31 17 162 35 226 98 354 24 48 57 116 72 150 28 61 29 62 96
87 120 45 323 90 379 84 31 -3 35 -7 38 -33 1 -16 10 -61 18 -100 23 -102 35
-169 48 -264 6 -47 16 -86 23 -88 19 -7 41 37 57 115 15 74 48 189 91 317 18
55 28 71 47 76 29 7 145 1 218 -11z m1960 -1742 c43 -115 63 -165 71 -180 13
-26 11 -105 -3 -131 -14 -25 -101 -131 -133 -162 -11 -11 -27 -30 -36 -42 -31
-45 -188 -137 -204 -121 -3 3 4 31 14 64 10 32 31 113 46 179 33 144 91 271
167 366 29 37 56 65 59 63 4 -2 12 -18 19 -36z m-5040 -300 c0 -57 -3 -78 -10
-68 -13 20 -13 150 0 150 6 0 10 -34 10 -82z m17 -150 c-2 -13 -4 -5 -4 17 -1
22 1 32 4 23 2 -10 2 -28 0 -40z m2805 -1439 c157 -10 218 -10 295 -1 54 7
122 12 151 12 l52 0 0 -55 c0 -59 -17 -187 -30 -221 -7 -17 -22 -22 -91 -32
-93 -13 -612 -11 -641 2 -15 7 -18 22 -18 105 0 53 -6 120 -13 149 -8 28 -11
54 -8 58 3 3 28 3 56 1 27 -3 139 -11 247 -18z m537 -387 c41 -20 82 -48 93
-62 31 -42 41 -147 35 -355 -6 -182 -22 -345 -36 -345 -10 1 -110 140 -167
234 -72 117 -174 312 -174 333 0 9 -14 56 -31 105 -17 49 -30 91 -28 93 3 2
194 31 229 33 3 1 38 -16 79 -36z m-507 16 l137 4 7 -26 c8 -32 -6 -51 -57
-77 -44 -22 -150 -119 -329 -299 -162 -164 -308 -273 -310 -232 -1 4 -5 27
-10 52 -5 25 -14 104 -20 177 -12 146 -5 180 48 237 36 38 124 104 192 143 53
31 58 32 130 25 41 -4 137 -5 212 -4z"/>
<path d="M3193 5445 c-93 -25 -174 -74 -249 -149 -70 -70 -71 -72 -76 -132 -8
-82 1 -151 19 -158 21 -9 75 20 113 59 47 48 62 46 54 -7 -3 -24 -10 -59 -15
-78 -18 -70 -8 -200 21 -275 42 -108 131 -213 200 -237 19 -7 78 -12 130 -13
91 0 98 2 147 33 99 63 174 163 201 267 26 99 44 210 40 257 -2 30 1 53 8 55
5 2 28 -12 51 -32 23 -19 50 -35 61 -35 23 0 72 36 72 53 0 18 -53 121 -90
174 -76 109 -233 203 -375 224 -89 13 -253 10 -312 -6z"/>
<path d="M5290 5311 c-46 -5 -91 -16 -117 -29 -23 -12 -49 -22 -57 -22 -9 0
-48 -31 -87 -69 l-72 -69 6 -51 c8 -70 32 -104 69 -99 37 6 43 -4 24 -44 -45
-100 -48 -268 -6 -353 62 -125 184 -202 305 -192 156 12 250 84 321 247 55
125 69 201 52 280 -6 33 -9 63 -5 66 15 15 113 -62 165 -129 18 -23 59 -13
130 33 39 26 29 59 -40 126 -169 164 -282 242 -418 288 -56 19 -171 26 -270
17z"/>
<path d="M2067 4733 c-17 -16 -4 -42 33 -68 58 -40 99 -90 133 -162 31 -67 56
-90 75 -71 17 17 15 40 -8 93 -22 51 -61 107 -100 142 -51 47 -119 81 -133 66z"/>
<path d="M3917 4010 c-31 -25 -74 -111 -82 -165 -11 -69 20 -231 57 -304 43
-85 155 -196 241 -238 105 -53 180 -67 316 -60 149 7 200 28 300 122 77 73
128 160 156 265 18 65 19 198 4 250 -19 61 -43 69 -251 80 -290 15 -345 20
-489 46 -170 30 -218 31 -252 4z m228 -64 c146 -19 320 -29 485 -28 127 1 137
0 177 -24 l43 -25 0 -97 c0 -154 -35 -240 -140 -348 -93 -95 -122 -106 -295
-106 -126 0 -146 3 -202 25 -34 14 -72 32 -85 41 -52 36 -156 148 -176 190
-27 53 -56 216 -47 266 15 88 52 132 105 124 14 -2 75 -10 135 -18z"/>
<path d="M9762 6287 c-12 -13 -22 -30 -22 -39 0 -9 -7 -29 -15 -44 -8 -16 -15
-53 -15 -81 0 -49 -2 -53 -23 -53 -22 0 -123 76 -140 106 -14 25 -125 18 -187
-12 -53 -25 -110 -77 -110 -100 0 -7 -7 -25 -15 -40 -9 -18 -15 -57 -15 -101
0 -61 4 -76 24 -100 13 -15 26 -38 30 -50 4 -13 14 -23 22 -23 7 0 35 -20 60
-45 25 -25 59 -49 75 -52 26 -5 79 -53 79 -72 0 -4 19 -17 43 -29 24 -12 57
-33 73 -47 16 -15 46 -35 66 -46 21 -10 42 -28 48 -39 8 -16 21 -20 58 -20 42
0 53 5 82 35 19 19 38 35 43 35 14 0 65 58 73 83 4 12 26 61 50 109 l44 88 0
212 c0 240 -1 242 -77 297 -23 16 -44 34 -48 40 -3 7 -43 11 -94 11 -79 0 -90
-2 -109 -23z m172 -79 c20 -18 47 -41 61 -51 l25 -18 0 -175 c0 -170 -1 -176
-25 -212 -14 -20 -25 -42 -25 -50 0 -49 -123 -212 -160 -212 -9 0 -25 9 -37
19 -11 11 -38 28 -60 40 -22 11 -43 27 -47 36 -3 9 -25 25 -48 35 -24 10 -59
35 -78 55 -19 20 -49 42 -66 50 -18 7 -34 23 -37 36 -4 15 -22 31 -48 44 -23
10 -45 29 -49 40 -4 11 -15 27 -24 34 -41 35 -3 151 66 201 68 50 79 49 155
-12 37 -29 83 -69 103 -89 33 -33 95 -69 119 -69 21 0 31 41 31 128 0 86 16
158 41 189 20 23 64 15 103 -19z"/>
<path d="M9394 5171 c-43 -20 -89 -68 -106 -110 -16 -40 -28 -161 -33 -336 -3
-88 -9 -182 -14 -210 -5 -27 -12 -99 -16 -160 -7 -131 -21 -158 -54 -104 -12
19 -21 41 -21 49 0 9 -5 21 -12 28 -23 23 -48 12 -74 -30 -15 -24 -46 -65 -68
-93 -43 -52 -58 -73 -147 -215 -29 -47 -57 -86 -61 -88 -5 -2 -8 -16 -8 -32 0
-28 22 -46 42 -34 14 9 98 136 134 204 37 69 134 184 146 172 21 -21 98 -156
98 -172 0 -10 -7 -24 -17 -31 -9 -8 -24 -27 -34 -43 -9 -15 -55 -67 -101 -115
-46 -47 -128 -132 -182 -188 -84 -87 -97 -105 -86 -118 7 -8 16 -15 20 -15 15
0 386 392 394 416 3 10 15 25 25 31 23 14 30 7 96 -102 74 -123 159 -243 243
-340 45 -53 82 -102 82 -110 0 -12 -89 -85 -104 -85 -3 0 -36 -14 -73 -31 -82
-38 -194 -74 -286 -94 -91 -20 -114 -19 -127 4 -9 18 -6 20 37 27 27 4 75 19
108 34 33 15 85 39 115 52 30 14 66 29 80 33 41 12 140 65 140 73 0 20 -16 18
-91 -14 -44 -19 -84 -34 -89 -34 -5 0 -37 -13 -72 -29 -147 -68 -167 -74 -252
-67 -77 7 -114 18 -128 40 -12 18 -10 20 30 41 109 57 195 122 350 263 77 71
99 102 70 102 -7 0 -47 -32 -88 -70 -162 -151 -378 -294 -413 -273 -27 15
-105 109 -129 153 -19 36 -24 64 -26 144 -5 123 8 168 55 197 27 17 31 24 22
35 -14 17 -60 18 -81 2 -9 -7 -27 -33 -39 -58 -21 -39 -23 -59 -24 -170 0
-120 1 -127 30 -182 45 -85 138 -188 295 -327 l72 -64 61 1 c80 1 318 65 395
106 15 8 42 20 60 27 18 6 63 34 100 61 37 28 75 54 85 59 9 5 17 16 17 24 0
8 17 23 38 33 20 10 46 23 57 29 11 7 47 24 80 39 103 46 257 122 330 164 39
22 82 39 98 40 43 0 162 66 211 115 35 37 45 56 55 103 36 186 47 341 31 475
-33 294 -54 364 -143 478 -28 37 -151 119 -199 134 -94 28 -278 16 -357 -23
-43 -20 -138 -131 -185 -215 -30 -55 -34 -58 -44 -40 -16 29 -25 162 -14 209
10 45 -1 154 -20 191 -6 12 -28 29 -50 37 -54 22 -181 20 -234 -3z m195 -66
c37 -18 39 -35 36 -229 -3 -147 -2 -163 18 -200 27 -52 46 -120 47 -170 0 -47
16 -188 36 -312 8 -50 14 -114 14 -142 0 -28 4 -53 9 -57 5 -3 17 -29 27 -58
9 -28 20 -54 24 -57 3 -3 18 -23 33 -44 33 -49 94 -91 160 -111 48 -14 77 -31
77 -44 0 -7 -21 -17 -125 -57 -91 -36 -131 -61 -182 -116 l-41 -46 -29 32
c-16 17 -51 58 -79 91 -27 33 -60 71 -73 84 -20 21 -89 123 -176 261 -12 19
-40 64 -63 100 l-41 65 10 95 c5 52 13 142 19 200 5 58 14 132 20 165 5 33 10
115 10 181 0 139 22 288 49 324 35 49 163 75 220 45z m675 -160 c141 -37 248
-174 280 -357 32 -182 29 -523 -4 -641 -25 -86 -121 -148 -267 -172 -75 -12
-96 -12 -167 1 -45 9 -100 25 -124 37 -37 19 -46 29 -62 76 -10 29 -30 65 -45
79 -15 13 -34 40 -41 58 -20 48 -44 208 -69 459 l-13 140 29 64 c30 65 104
166 157 213 60 53 211 73 326 43z"/>
<path d="M9487 3183 c-4 -3 -7 -39 -7 -79 0 -115 -40 -207 -155 -357 -33 -43
-86 -115 -118 -160 -78 -110 -134 -181 -180 -229 -20 -22 -73 -86 -116 -143
-99 -130 -122 -156 -195 -224 -33 -31 -130 -123 -215 -205 -175 -167 -267
-240 -359 -284 -97 -47 -178 -110 -292 -228 -123 -127 -208 -202 -257 -226
-19 -10 -41 -22 -49 -29 -7 -6 -71 -35 -141 -64 -74 -30 -129 -59 -131 -68 -2
-8 8 -27 21 -43 19 -22 28 -26 38 -17 8 5 38 16 68 23 61 14 116 43 125 65 3
8 29 26 58 39 29 13 67 35 83 50 17 15 64 55 105 89 41 34 90 79 110 100 130
140 176 178 271 227 54 28 111 61 127 75 17 14 33 25 37 25 8 0 20 10 255 229
217 203 300 289 393 411 48 63 121 156 163 205 108 129 321 419 361 492 44 79
63 150 63 235 0 47 -5 71 -16 82 -16 17 -36 21 -47 9z"/>
</g>
</svg>
